<svg fill="currentColor" xmlns="http://www.w3.org/2000/svg" version="1.1" viewBox="0 0 64 64">
  <path d="M56,34c.54999,0,1-.45001,1-1v-5c0-1.65002-1.34998-3-3-3v-3c0-1.65002-1.34998-3-3-3v-3c0-.54999-.45001-1-1-1h-3v-5c0-1.65002-1.34998-3-3-3H14c-1.65002,0-3,1.34998-3,3v1h-3c-.54999,0-1,.45001-1,1v39.76996c0,2.83002,2.28998,5.23004,5.01001,5.23004h39.98999c2.76001,0,5-2.23999,5-5v-11c0-.54999-.45001-1-1-1s-1,.45001-1,1v11c0,1.64996-1.34998,3-3,3H15.96997c.66003-.87,1.03003-1.91003,1.03003-3v-24c0-.54999.45001-1,1-1h36c.54999,0,1,.45001,1,1v5c0,.54999.45001,1,1,1ZM47,17h2v2h-2v-2ZM14.13,54.12c-.53998.52997-1.25.83997-1.98999.88h-.13c-1.63,0-3.01001-1.48004-3.01001-3.23004V13h2v37c0,1.64996,1.34998,3,3,3h.82001c-.15002.40997-.38.79999-.69,1.12ZM18,22v3c-1.65002,0-3,1.34998-3,3v23h-1c-.54999,0-1-.45001-1-1V10c0-.54999.45001-1,1-1h30c.54999,0,1,.45001,1,1v9h-24c-1.65002,0-3,1.34998-3,3ZM52,25H20v-3c0-.54999.45001-1,1-1h30c.54999,0,1,.45001,1,1v3Z"/>
  <path d="M16,13h26c.55273,0,1-.44775,1-1s-.44727-1-1-1h-26c-.55273,0-1,.44775-1,1s.44727,1,1,1Z"/>
  <path d="M33,16c0-.55225-.44727-1-1-1h-16c-.55273,0-1,.44775-1,1s.44727,1,1,1h16c.55273,0,1-.44775,1-1Z"/>
  <path d="M24,41c0,6.6167,5.38281,12,12,12s12-5.3833,12-12-5.38281-12-12-12-12,5.3833-12,12ZM46,41c0,5.51416-4.48633,10-10,10s-10-4.48584-10-10,4.48633-10,10-10,10,4.48584,10,10Z"/>
  <path d="M35.71582,35.01074c-1.06036.04645-2.07794.38873-2.95801.95239v-.61987c0-.55225-.44727-1-1-1s-1,.44775-1,1v2.82812c0,.55225.44727,1,1,1h2.82812c.55273,0,1-.44775,1-1,0-.48145-.34692-.86456-.80035-.95972.34924-.11151.7124-.19165,1.09528-.20923.01953-.00244.04004-.00293.05957-.00293,2.19922-.00391,4.05957,1.77539,4.05957,4.00049,0,2.20557-1.79395,4-4,4-1.8623,0-3.46094-1.2583-3.8877-3.06006-.12695-.53809-.66699-.87012-1.20312-.74316-.53711.12695-.87012.66602-.74219,1.20312.64062,2.7085,3.03906,4.6001,5.83301,4.6001,3.30859,0,6-2.69141,6-6s-2.69141-6-6-6c-.12012,0-.24121.00244-.28418.01074Z"/>
  <circle cx="56" cy="37" r="1"/>
</svg>
