<svg fill="currentColor" xmlns="http://www.w3.org/2000/svg" version="1.1" viewBox="0 0 64 64">
  <path d="M50,15c-.34003,0-.66998.01996-1,.07001v-.07001c0-3.85999-3.14001-7-7-7-2.42999,0-4.67999,1.28998-5.94,3.31-1.48999-1.07001-3.34003-1.54004-5.25-1.21002-1.28998-1.92999-3.45001-3.09998-5.81-3.09998-3.09998,0-5.83002,2.08997-6.71002,5.01001-3.35999-.16003-6.26996,2.12-7.06,5.25995-2.48999.78003-4.22998,3.08002-4.22998,5.73004,0,3.31,2.69,6,6,6h4v17c0,1.64996,1.34998,3,3,3h11v2.17999c-.84998.31-1.51001.96997-1.82001,1.82001h-9.35999c-.41998-1.16003-1.52002-2-2.82001-2-1.65002,0-3,1.34998-3,3s1.34998,3,3,3c1.29999,0,2.40002-.84003,2.82001-2h9.35999c.41998,1.15997,1.52002,2,2.82001,2s2.40002-.84003,2.82001-2h9.35999c.41998,1.15997,1.52002,2,2.82001,2,1.65002,0,3-1.35004,3-3s-1.34998-3-3-3c-1.29999,0-2.40002.83997-2.82001,2h-9.35999c-.31-.85004-.97003-1.51001-1.82001-1.82001v-2.17999h11c1.65002,0,3-1.35004,3-3v-17h3c3.85999,0,7-3.14001,7-7s-3.14001-7-7-7ZM17,55c-.54999,0-1-.45001-1-1s.45001-1,1-1,1,.45001,1,1-.45001,1-1,1ZM47,53c.54999,0,1,.45001,1,1s-.45001,1-1,1-1-.45001-1-1,.45001-1,1-1ZM32,55c-.54999,0-1-.45001-1-1s.45001-1,1-1,1,.45001,1,1-.45001,1-1,1ZM45,46c0,.54999-.45001,1-1,1h-24c-.54999,0-1-.45001-1-1v-9h26v9ZM50,27h-3v-1c0-1.65002-1.34998-3-3-3h-12c-.54999,0-1,.45001-1,1s.45001,1,1,1h12c.54999,0,1,.45001,1,1v9h-26v-9c0-.54999.45001-1,1-1h4c.54999,0,1-.45001,1-1s-.45001-1-1-1h-4c-1.65002,0-3,1.34998-3,3v1h-4c-2.21002,0-4-1.79004-4-4,0-1.92004,1.37-3.57001,3.27002-3.92999.40997-.08002.73999-.41003.79999-.83002.35999-2.41998,2.47998-4.23999,4.92999-4.23999.28003,0,.57001.02997.90002.07996.25995.05005.52997-.00995.75-.16998.21997-.14996.37-.39001.40997-.65997.37-2.42004,2.48999-4.25,4.94-4.25,1.88,0,3.57001,1.02997,4.42999,2.70001.22003.41998.70001.62994,1.16003.5.48999-.13.94995-.20001,1.40997-.20001,1.38,0,2.71002.57996,3.65002,1.58997.22998.26001.58997.37.92999.30005.33997-.07001.62-.31006.73999-.63.71997-1.95001,2.60999-3.26001,4.67999-3.26001,2.76001,0,5,2.23999,5,5,0,.39001-.04999.78998-.14001,1.16998-.08997.37.03003.75.31.98999.28003.25.67999.32001,1.02002.17999.59003-.21997,1.20001-.33997,1.81-.33997,2.76001,0,5,2.23999,5,5s-2.23999,5-5,5Z"/>
  <path d="M38,45h4c.55225,0,1-.44775,1-1v-4c0-.55225-.44775-1-1-1h-4c-.55225,0-1,.44775-1,1v4c0,.55225.44775,1,1,1ZM39,41h2v2h-2v-2Z"/>
  <path d="M24,45h8c1.6543,0,3-1.3457,3-3s-1.3457-3-3-3h-8c-1.6543,0-3,1.3457-3,3s1.3457,3,3,3ZM24,41h8c.55127,0,1,.44873,1,1s-.44873,1-1,1h-8c-.55127,0-1-.44873-1-1s.44873-1,1-1Z"/>
  <path d="M26,27h-4c-.55225,0-1,.44775-1,1v4c0,.55225.44775,1,1,1h4c.55225,0,1-.44775,1-1v-4c0-.55225-.44775-1-1-1ZM25,31h-2v-2h2v2Z"/>
  <path d="M29,30c0,1.6543,1.3457,3,3,3h8c1.6543,0,3-1.3457,3-3s-1.3457-3-3-3h-8c-1.6543,0-3,1.3457-3,3ZM32,29h8c.55127,0,1,.44873,1,1s-.44873,1-1,1h-8c-.55127,0-1-.44873-1-1s.44873-1,1-1Z"/>
  <path d="M32,15c-1.6543,0-3,1.3457-3,3s1.3457,3,3,3,3-1.3457,3-3-1.3457-3-3-3ZM32,19c-.55127,0-1-.44873-1-1s.44873-1,1-1,1,.44873,1,1-.44873,1-1,1Z"/>
  <path d="M27,18c0-1.6543-1.3457-3-3-3s-3,1.3457-3,3,1.3457,3,3,3,3-1.3457,3-3ZM24,19c-.55127,0-1-.44873-1-1s.44873-1,1-1,1,.44873,1,1-.44873,1-1,1Z"/>
  <path d="M40,15c-1.6543,0-3,1.3457-3,3s1.3457,3,3,3,3-1.3457,3-3-1.3457-3-3-3ZM40,19c-.55127,0-1-.44873-1-1s.44873-1,1-1,1,.44873,1,1-.44873,1-1,1Z"/>
  <circle cx="28" cy="24" r="1"/>
</svg>
