<svg fill="currentColor" xmlns="http://www.w3.org/2000/svg" version="1.1" viewBox="0 0 64 64">
  <path d="M54,29.5h-23c-.54999,0-1,.45001-1,1s.45001,1,1,1h15v6h-6c0-.45001-.29999-.84003-.72998-.96002l-7-2c-.17999-.04999-.36005-.04999-.54004,0l-7,2c-.42999.12-.72998.51001-.72998.96002h-6v-6h5c.54999,0,1-.45001,1-1s-.45001-1-1-1h-13c-1.65002,0-3,1.34998-3,3v20c0,1.64996,1.34998,3,3,3h44c1.65002,0,3-1.35004,3-3v-20c0-1.65002-1.34998-3-3-3ZM40,41.42999v-1.92999h2v6h-2.96997c.62-1.23999.96997-2.62.96997-4.07001ZM26,38.25l6-1.71002,6,1.71002v3.17999c0,3.48999-2.57001,6.5-6,7.06-3.42999-.56-6-3.57001-6-7.06v-3.17999ZM22,39.5h2v1.92999c0,1.45001.34998,2.83002.96997,4.07001h-2.96997v-6ZM9,32.5c0-.54999.45001-1,1-1h6v6h-7v-5ZM9,39.5h11v6h-11v-6ZM16,53.5h-6c-.54999,0-1-.45001-1-1v-5h7v6ZM46,53.5h-28v-6h8.33002c1.39996,1.57001,3.32996,2.67999,5.52997,2.98999.04999.01001.09003.01001.14001.01001s.09003,0,.14001-.01001c2.20001-.31,4.13-1.41998,5.52997-2.98999h8.33002v6ZM55,52.5c0,.54999-.45001,1-1,1h-6v-6h7v5ZM55,45.5h-11v-6h11v6ZM55,37.5h-7v-6h6c.54999,0,1,.45001,1,1v5Z"/>
  <path d="M12,27.75977c.49316,0,.90332-.35742.98535-.82715l2.86328-.7998c.34375-.0957.60938-.36621.69922-.71191.36426-1.40137.91699-2.73828,1.64453-3.97363.18066-.30762.18359-.68848.00781-1l-1.45508-2.56836,3.63379-3.63379,2.56836,1.45508c.31152.17578.69238.17188,1-.00781,1.23535-.72754,2.57227-1.28027,3.97363-1.64453.3457-.08984.61621-.35547.71191-.69922l.7959-2.84863h5.14258l.7959,2.84863c.0957.34375.36621.60938.71191.69922,1.40137.36426,2.73828.91699,3.97363,1.64453.30762.18066.6875.18457,1,.00781l2.56836-1.45508,3.63379,3.63379-1.45508,2.56836c-.17578.31152-.17285.69238.00781,1,.72754,1.23535,1.28027,2.57227,1.64453,3.97363.08984.3457.35547.61621.69922.71191l2.86328.7998c.08203.46973.49219.82715.98535.82715.55273,0,1-.44727,1-1v-.58984c0-.44824-.29883-.84277-.73145-.96289l-3.03613-.84863c-.35059-1.18945-.82422-2.33496-1.41309-3.41797l1.55078-2.7373c.22168-.3916.15527-.88281-.16309-1.2002l-4.70996-4.70996c-.31738-.31738-.80958-.38281-1.2002-.16309l-2.7373,1.55078c-1.08301-.58887-2.22852-1.0625-3.41797-1.41309l-.84863-3.03613c-.12012-.43262-.51465-.73145-.96289-.73145h-6.66016c-.44824,0-.84277.29883-.96289.73145l-.84863,3.03613c-1.18945.35059-2.33496.82422-3.41797,1.41309l-2.7373-1.55078c-.3916-.21973-.88184-.15527-1.2002.16309l-4.70996,4.70996c-.31836.31738-.38477.80859-.16309,1.2002l1.55078,2.7373c-.58887,1.08301-1.0625,2.22852-1.41309,3.41797l-3.03613.84863c-.43262.12012-.73145.51465-.73145.96289v.58984c0,.55273.44727,1,1,1Z"/>
  <path d="M43.64941,26.61035c.1123.45508.52051.75977.96973.75977.0791,0,.16016-.00977.24121-.0293.53613-.13184.86328-.67383.73047-1.21094-1.5459-6.25879-7.13477-10.62988-13.59082-10.62988s-12.04492,4.37109-13.59082,10.62988c-.13281.53711.19434,1.0791.73047,1.21094.53516.12891,1.0791-.19434,1.21094-.73047,1.3252-5.36426,6.11523-9.11035,11.64941-9.11035s10.32422,3.74609,11.64941,9.11035Z"/>
  <circle cx="27" cy="30.5" r="1"/>
</svg>
