<svg fill="currentColor" xmlns="http://www.w3.org/2000/svg" version="1.1" viewBox="0 0 48 48">
  <path d="M39,27c-1.11035,0-2.18555-.3252-3.10938-.94141l-1.33594-.89062c-.33594-.22461-.77344-.22461-1.10938,0l-1.33594.89062c-.34863.23254-.72388.40942-1.10938.55725v-2.61584c0-.55273-.44727-1-1-1s-1,.44727-1,1v3c-.44568,0-.8537.15173-1.18665.39929l-4.39929-4.39929,5.58594-5.58594v2.58594c0,.55273.44727,1,1,1s1-.44727,1-1v-2.99999c0-1.63093-1.37091-3.00001-3-3.00001h-2v-2.58594l.71466-.71466c.39111.18713.82361.3006,1.28534.3006,1.6543,0,3-1.3457,3-3s-1.3457-3-3-3-3,1.3457-3,3c0,.46173.11346.89423.3006,1.28534l-1.00763,1.00763c-.1875.1875-.29297.44141-.29297.70703v3h-4v-3.18427c1.1615-.41412,2-1.51379,2-2.81573,0-1.6543-1.3457-3-3-3s-3,1.3457-3,3c0,1.30194.8385,2.40155,2,2.81567v3.18433h-4v-3c0-.26562-.10547-.51953-.29297-.70703l-1.00763-1.00763c.18713-.39111.3006-.82361.3006-1.28534,0-1.6543-1.3457-3-3-3s-3,1.3457-3,3,1.3457,3,3,3c.46173,0,.89423-.11346,1.28534-.3006l.71466.71466v2.58594h-1.99999c-1.622,0-3.00001,1.38267-3.00001,3v11.99999c0,1.63148,1.36988,3.00001,3,3.00001h5c.55273,0,1-.44727,1-1s-.44727-1-1-1h-4.58594l5.58594-5.58594,2.29297,2.29297c.19531.19531.45117.29297.70703.29297s.51172-.09766.70703-.29297l2.29297-2.29297,5,5v.58594h-8c-.55273,0-1,.44727-1,1s.44727,1,1,1h8v2c0,3.6942,5.73102,8.277,6.38469,8.78803.33845.26459.86759.28453,1.23054.00006.65332-.51074,6.38477-5.09375,6.38477-8.78809v-5c0-1.10254-.89746-2-2-2ZM28,7c.55176,0,1,.44824,1,1s-.44824,1-1,1c-.27094,0-.51532-.11005-.6955-.2854-.00336-.00342-.00421-.00806-.00763-.01147s-.00806-.00427-.01147-.00763c-.17535-.18018-.2854-.42456-.2854-.6955,0-.55176.44824-1,1-1ZM19,7c.55176,0,1,.44824,1,1s-.44824,1-1,1-1-.44824-1-1,.44824-1,1-1ZM9,8c0-.55176.44824-1,1-1s1,.44824,1,1c0,.27094-.11005.51532-.2854.6955-.00342.00336-.00806.00421-.01147.00763s-.00427.00806-.00763.01147c-.18018.17535-.42456.2854-.6955.2854-.55176,0-1-.44824-1-1ZM9,28.58594v-11.17188l5.58594,5.58594-5.58594,5.58594ZM19,24.58594l-8.58594-8.58594h17.17188l-8.58594,8.58594ZM39,34c0,1.86914-2.85059,4.90039-5,6.71094-2.14941-1.81055-5-4.8418-5-6.71094v-5c1.50684,0,2.96582-.44141,4.21875-1.27734l.78125-.52051.78125.52051c1.25293.83594,2.71191,1.27734,4.21875,1.27734v5Z" fill="currentColor" stroke-width="0"/>
  <path d="M32.20703,31.79297c-.39062-.39062-1.02344-.39062-1.41406,0s-.39062,1.02344,0,1.41406l2,2c.19531.19531.45117.29297.70703.29297s.51172-.09766.70703-.29297l3-3c.39062-.39062.39062-1.02344,0-1.41406s-1.02344-.39062-1.41406,0l-2.29297,2.29297-1.29297-1.29297Z" fill="currentColor" stroke-width="0"/>
</svg>
