<svg fill="currentColor" xmlns="http://www.w3.org/2000/svg" version="1.1" viewBox="0 0 64 64">
  <path d="M27,38c0,1.6543,1.3457,3,3,3s3-1.3457,3-3v-2c0-1.6543-1.3457-3-3-3s-3,1.3457-3,3v2ZM29,36c0-.55176.44824-1,1-1s1,.44824,1,1v2c0,.55176-.44824,1-1,1s-1-.44824-1-1v-2Z"/>
  <path d="M50,33c-1.6543,0-3,1.3457-3,3v2c0,1.6543,1.3457,3,3,3s3-1.3457,3-3v-2c0-1.6543-1.3457-3-3-3ZM51,38c0,.55176-.44824,1-1,1s-1-.44824-1-1v-2c0-.55176.44824-1,1-1s1,.44824,1,1v2Z"/>
  <path d="M38,41c.55273,0,1-.44727,1-1v-6c0-.55273-.44727-1-1-1h-2c-.55273,0-1,.44727-1,1s.44727,1,1,1h1v5c0,.55273.44727,1,1,1Z"/>
  <path d="M44,41c.55273,0,1-.44727,1-1v-6c0-.55273-.44727-1-1-1h-2c-.55273,0-1,.44727-1,1s.44727,1,1,1h1v5c0,.55273.44727,1,1,1Z"/>
  <path d="M45,26c0-1.6543-1.3457-3-3-3s-3,1.3457-3,3v2c0,1.6543,1.3457,3,3,3s3-1.3457,3-3v-2ZM43,28c0,.55176-.44824,1-1,1s-1-.44824-1-1v-2c0-.55176.44824-1,1-1s1,.44824,1,1v2Z"/>
  <path d="M30,31c.55273,0,1-.44727,1-1v-6c0-.55273-.44727-1-1-1h-2c-.55273,0-1,.44727-1,1s.44727,1,1,1h1v5c0,.55273.44727,1,1,1Z"/>
  <path d="M36,31c.55273,0,1-.44727,1-1v-6c0-.55273-.44727-1-1-1h-2c-.55273,0-1,.44727-1,1s.44727,1,1,1h1v5c0,.55273.44727,1,1,1Z"/>
  <path d="M53,26c0-1.6543-1.3457-3-3-3s-3,1.3457-3,3v2c0,1.6543,1.3457,3,3,3s3-1.3457,3-3v-2ZM51,28c0,.55176-.44824,1-1,1s-1-.44824-1-1v-2c0-.55176.44824-1,1-1s1,.44824,1,1v2Z"/>
  <path d="M56,25c.54999,0,1-.45001,1-1v-11c0-1.65002-1.34998-3-3-3h-28c-1.65002,0-3,1.34998-3,3v1h-1c-1.65002,0-3,1.34998-3,3v14h-.59003l-2.69995-2.71002c-.19-.17999-.44-.28998-.71002-.28998h-5c-1.65002,0-3,1.34998-3,3v20c0,1.64996,1.34998,3,3,3h26c1.65002,0,3-1.35004,3-3v-2h11c1.65002,0,3-1.35004,3-3v-1h1c1.65002,0,3-1.35004,3-3v-10c0-.54999-.45001-1-1-1s-1,.45001-1,1v10c0,.54999-.45001,1-1,1h-28c-.54999,0-1-.45001-1-1V13c0-.54999.45001-1,1-1h28c.54999,0,1,.45001,1,1v11c0,.54999.45001,1,1,1ZM37,51c0,.54999-.45001,1-1,1H10c-.54999,0-1-.45001-1-1v-20c0-.54999.45001-1,1-1h4.59003l2.69995,2.70996c.19.18005.44.29004.71002.29004h1v13c0,1.64996,1.34998,3,3,3h15v2ZM26,45h25v1c0,.54999-.45001,1-1,1h-28c-.54999,0-1-.45001-1-1v-29c0-.54999.45001-1,1-1h1v26c0,1.64996,1.34998,3,3,3Z"/>
  <path d="M53,15c0-.55273-.44727-1-1-1h-24c-.55273,0-1,.44727-1,1v5c0,.55273.44727,1,1,1h24c.55273,0,1-.44727,1-1v-5ZM51,19h-22v-3h22v3Z"/>
  <circle cx="56" cy="28" r="1"/>
</svg>
