<svg fill="currentColor" xmlns="http://www.w3.org/2000/svg" version="1.1" viewBox="0 0 64 64">
  <path d="M54,31.00061h-12.03998c1.57001-1.81,2.41998-4.13,2.41998-6.75,0-1.90002-.44-3.90002-1.28003-5.78003-.15997-.38-.53998-.62-.94995-.59998-.42004.02002-.77002.28998-.91003.67999l-.22998.67999c-.23999.72003-.67999,1.31-1.28003,1.72998-.32001.23004-.66998.41003-1.03998.52002v-.33002c0-2.91998-.81-5.76996-2.34003-8.25-.42999-.69995-.94-1.39996-1.52997-2.06-.02002-.02997-.04999-.04999-.08002-.07996-1.29999-1.5-2.89001-2.73004-4.72998-3.65002-.35999-.19-.79999-.13-1.10999.13-.30005.27002-.42004.69-.29004,1.08002l.54004,1.59998c.14996.47003.22998.96002.22998,1.45001,0,1.20996-.47998,2.38-1.33002,3.21997-1.22998,1.23004-1.92999,2.92999-1.92999,4.65002v.08997c-1.03998-.67999-1.84998-1.65997-2.31-2.82996-.14001-.35004-.46002-.59003-.83002-.63-.38-.03003-.73999.14996-.94.45996-1.56,2.44-2.41998,5.25-2.41998,7.92004,0,2.62.84998,4.94,2.41998,6.75h-12.03998c-1.65002,0-3,1.34998-3,3v20c0,1.64996,1.34998,3,3,3h44c1.65002,0,3-1.35004,3-3v-20c0-1.65002-1.34998-3-3-3ZM21.62,24.25061c0-1.76001.44-3.59003,1.25-5.31.76001,1.07001,1.78003,1.94,2.97003,2.52997l.82996.42004c.31.15997.67999.13995.97003-.04004.29999-.17999.47998-.5.47998-.84998v-1.76001c0-1.20001.48999-2.38,1.34998-3.22998,1.21002-1.22003,1.91003-2.91003,1.91003-4.64001,0-.38-.03003-.75-.09003-1.12.74005.56,1.41003,1.20001,2.01001,1.89996l.09003.09003c.47998.54999.89996,1.12,1.25,1.71002,1.33997,2.16998,2.04999,4.65997,2.04999,7.19995v1.47003c0,.54999.45001,1,1,1,1.17999,0,2.28998-.35999,3.20001-1.03003.44-.29999.82001-.66998,1.14996-1.08997.22003.92999.34003,1.84998.34003,2.75,0,2.87-1.17999,5.19-3.39001,6.75h-13.97998c-2.21002-1.56-3.39001-3.88-3.39001-6.75ZM18,33.00061h28v6h-13c-.54999,0-1,.45001-1,1s.45001,1,1,1h10v6h-21v-6h3c.54999,0,1-.45001,1-1s-.45001-1-1-1h-7v-6ZM9,34.00061c0-.54999.45001-1,1-1h6v6h-7v-5ZM9,41.00061h11v6h-11v-6ZM16,55.00061h-6c-.54999,0-1-.45001-1-1v-5h7v6ZM46,55.00061h-28v-6h28v6ZM55,54.00061c0,.54999-.45001,1-1,1h-6v-6h7v5ZM55,47.00061h-10v-6h10v6ZM55,39.00061h-7v-6h6c.54999,0,1,.45001,1,1v5Z"/>
  <path d="M40.10547,15.55335c-.24707.49414-.04688,1.09473.44741,1.34187.49268.24624,1.09587.04421,1.34165-.44734.76611-1.53223.76611-3.36182,0-4.89453-.48633-.97217-.48633-2.1333,0-3.10547.24707-.49414.04639-1.09473-.44727-1.3418-.49609-.24658-1.09521-.0459-1.3418.44727-.76611,1.53271-.76611,3.3623,0,4.89453.48633.97217.48633,2.1333,0,3.10547Z"/>
  <path d="M24.47314,12.81849l-.36768.73486c-.24707.49365-.04688,1.09424.44758,1.34195.49156.24557,1.09607.04342,1.34149-.44742l.36768-.73535c.5708-1.14258.34766-2.5166-.55518-3.41895-.29297-.29346-.36572-.73975-.18018-1.11084l.36768-.73486c.24707-.49365.04688-1.09424-.44727-1.3418-.49414-.24707-1.09473-.04736-1.3418.44727l-.36768.73535c-.5708,1.14258-.34766,2.5166.55518,3.41895.29297.29346.36572.73975.18018,1.11084Z"/>
  <circle cx="29" cy="40.00061" r="1"/>
</svg>
