<svg fill="currentColor" xmlns="http://www.w3.org/2000/svg" version="1.1" viewBox="0 0 64 64">
  <path d="M56.05957,42.32488c-.49927-.86414-1.16602-1.59131-1.9502-2.1601.01343-.04895.03845-.09302.04443-.14459l.8877-6.78711c1.32715-10.18945-4.06885-19.89746-13.42871-24.15918-6.10938-2.76758-13.11621-2.7666-19.22754.00098-9.35791,4.26074-14.75391,13.96875-13.42676,24.15918l.90936,6.94647c-.77441.56647-1.43286,1.28845-1.92743,2.14435-.93555,1.61914-1.18457,3.50586-.70068,5.31152l.51709,1.93262c.48291,1.80566,1.64062,3.31543,3.25977,4.25098,1.0791.62402,2.27686.94238,3.49072.94238.27802,0,.55695-.02142.83551-.05511l.01947.07269c.41665,1.55559,2.11644,2.53999,3.67334,2.12207l1.93994-.51855c1.59717-.42871,2.54883-2.07617,2.12158-3.67383l-4.13623-15.45605c-.20703-.77441-.70312-1.4209-1.39697-1.82227-.69385-.39941-1.50195-.50684-2.30121-.2934l-.35114-2.68219c-.98242-7.55762,3.01709-14.75586,9.95215-17.91113,4.53418-2.05859,9.73682-2.05957,14.27197,0,6.93555,3.15527,10.93506,10.35352,9.95264,17.91016,0,0-.3512,2.68311-.375,2.67676-.77539-.20801-1.5835-.10059-2.27734.2998-.69385.40137-1.18994,1.04785-1.39697,1.82227l-4.13623,15.45605c-.42725,1.59766.52441,3.24512,2.12256,3.67383,0,0,1.93896.51855,1.93898.51856,1.57667.42242,3.25162-.54455,3.67333-2.12207l.01947-.07269c.27856.03369.5575.05511.83551.05511,1.21387,0,2.41162-.31836,3.49072-.94238,1.61914-.93555,2.77686-2.44531,3.25977-4.25098l.51709-1.93262c.48389-1.80566.23486-3.69238-.70068-5.31152ZM12.01709,52.08856c-1.15625-.66797-1.9834-1.74707-2.32861-3.03711l-.51709-1.93262c-.34521-1.29004-.16748-2.63672.50098-3.79297.49799-.862,1.22504-1.53961,2.09674-1.97272l3.05011,11.39746c-.97119.06061-1.93945-.16339-2.80212-.66205ZM15.80552,37.06307c.52901-.14405,1.0821.1787,1.22377.7081.00011.00042,4.13623,15.45605,4.13623,15.45605.14209.53223-.17529,1.08203-.70752,1.22461l-1.93896.51855c-.53027.13867-1.08301-.17578-1.2251-.70801l-4.13623-15.45605c-.06885-.25781-.0332-.52734.10059-.75879.1333-.23145.34912-.39648.60693-.46582,0,0,1.93896-.51855,1.94029-.51865ZM39.96338,12.7243c-5.06006-2.29883-10.86523-2.29883-15.92725,0-7.74072,3.52148-12.20459,11.55469-11.10791,19.99023l.38593,2.94849c-.758.21259-1.39313.70099-1.78778,1.38354-.0163.02826-.0246.05927-.03992.08789l-.54456-4.15918c-1.21289-9.3125,3.71875-18.18652,12.27051-22.0791,5.58398-2.53125,11.99023-2.53125,17.57324-.00098,8.55371,3.89355,13.48535,12.76758,12.27246,22.0791l-.54431,4.16071c-.01544-.02881-.02374-.06-.04016-.08844-.39465-.68256-1.02979-1.17096-1.78778-1.38354l.38593-2.94946c1.09668-8.43457-3.36719-16.46777-11.1084-19.98926ZM45.48096,54.97039l-1.93799-.51855c-.5332-.14258-.85059-.69238-.7085-1.22461,0,0,4.12766-15.42403,4.13622-15.456.13584-.50759.70373-.84865,1.22511-.70806l1.93896.51855c.25781.06934.47363.23438.60693.46582.13379.23145.16943.50098.10059.75879l-4.13623,15.45605c-.14307.53223-.69287.84668-1.2251.70801ZM54.82861,47.11883l-.51709,1.93262c-.34521,1.29004-1.17236,2.36914-2.32861,3.03711-.86218.4986-1.83105.72253-2.80212.66199l3.05011-11.3974c.8717.43311,1.59875,1.11072,2.09674,1.97272.66846,1.15625.84619,2.50293.50098,3.79297Z"/>
  <path d="M30,16.00457c-5.51416,0-10,4.48633-10,10v9c0,.40427.24362.76949.61712.9238.35038.14476.79679.07635,1.08991-.21677l1.96387-1.96289c1.78076,1.46094,3.99365,2.25586,6.3291,2.25586,5.51416,0,10-4.48633,10-10s-4.48584-10-10-10ZM30,34.00457c-2.13721,0-4.14648-.83203-5.65674-2.34277-.1875-.1875-.44189-.29297-.70703-.29297s-.51953.10547-.70703.29297l-.9292.92871v-6.58594c0-4.41113,3.58887-8,8-8s8,3.58887,8,8-3.58887,8-8,8Z"/>
  <path d="M37,38.00457h-1c-.55225,0-1,.44727-1,1s.44775,1,1,1h1c.55127,0,1,.44824,1,1v6.13184l-1.44531-.96387c-.16406-.10938-.35742-.16797-.55469-.16797h-9c-.55127,0-1-.44824-1-1v-4c0-.55176.44873-1,1-1h1c.55225,0,1-.44727,1-1s-.44775-1-1-1h-1c-1.6543,0-3,1.3457-3,3v4c0,1.6543,1.3457,3,3,3h8.69727l2.74805,1.83203c.16739.11127.36063.16791.55437.16797.54515.00018,1.00032-.45663,1.00032-1v-8c0-1.6543-1.3457-3-3-3Z"/>
  <path d="M28,43.00457c0,.55273.44775,1,1,1h6c.55225,0,1-.44727,1-1s-.44775-1-1-1h-6c-.55225,0-1,.44727-1,1Z"/>
  <path d="M30,20.00457c-1.6543,0-3,1.3457-3,3,0,.55273.44775,1,1,1s1-.44727,1-1c0-.55176.44873-1,1-1s1,.44824,1,1c0,.32227-.14941.61621-.40967.80762-1.01074.74023-1.59033,1.80762-1.59033,2.92969v.2627c0,.55273.44775,1,1,1s1-.44727,1-1v-.2627c0-.65332.48389-1.10547.77246-1.31641.76855-.56445,1.22754-1.46875,1.22754-2.4209,0-1.6543-1.3457-3-3-3Z"/>
  <circle cx="30" cy="31.00457" r="1"/>
  <circle cx="32" cy="39.00457" r="1"/>
</svg>
