<svg fill="currentColor" xmlns="http://www.w3.org/2000/svg" version="1.1" viewBox="0 0 64 64">
  <path d="M56.97998,51.89996c0-.02997.01001-.06,0-.07996l-2.97998-15.91003V10c0-1.65002-1.34998-3-3-3h-25c-.54999,0-1,.45001-1,1s.45001,1,1,1h25c.54999,0,1,.45001,1,1v25H12V10c0-.54999.45001-1,1-1h5c.54999,0,1-.45001,1-1s-.45001-1-1-1h-5c-1.65002,0-3,1.34998-3,3v25.90997l-2.97998,15.91003c-.01001.01996,0,.04999,0,.07996,0,.04004-.02002.06-.02002.10004,0,2.76001,2.23999,5,5,5h40c2.76001,0,5-2.23999,5-5,0-.04004-.02002-.06-.02002-.10004ZM11.83002,37h40.33997l2.62,14h-15.16998l-1.72998-3.45001c-.16003-.34003-.51001-.54999-.89001-.54999h-10c-.38,0-.72998.20996-.89001.54999l-1.72998,3.45001h-15.16998l2.62-14ZM37.38,51h-10.76001l1-2h8.76001l1,2ZM52,55H12c-1.29999,0-2.41998-.84003-2.83002-2h45.66003c-.41003,1.15997-1.53003,2-2.83002,2Z"/>
  <path d="M50,45c.30811,0,.59863-.14209.78809-.38477s.25684-.55908.18213-.85791l-1-4c-.11133-.44482-.51123-.75732-.97021-.75732H15c-.45898,0-.85889.3125-.97021.75732l-1,4c-.07471.29883-.00732.61523.18213.85791s.47998.38477.78809.38477h36ZM15.78076,41h32.43848l.5,2H15.28076l.5-2Z"/>
  <path d="M49,11H15c-.54999,0-1,.45001-1,1v20c0,.54999.45001,1,1,1h34c.54999,0,1-.45001,1-1V12c0-.54999-.45001-1-1-1ZM25,26.57996v4.42004h-2v-4.42004c0-.39996-.23999-.75995-.59998-.91998-1.46002-.64001-2.40002-2.07001-2.40002-3.65997,0-.98999.37-1.92004,1-2.64001v2.64001c0,.54999.45001,1,1,1h4c.54999,0,1-.45001,1-1v-2.64001c.63.71997,1,1.65002,1,2.64001,0,1.58997-.94,3.01996-2.40002,3.65997-.35999.16003-.59998.52002-.59998.91998ZM48,31h-21v-3.81c1.84003-1.06,3-3.03003,3-5.19,0-2.38-1.40997-4.54004-3.59998-5.48999-.31-.14001-.66003-.11005-.95001.06995-.28003.19-.45001.5-.45001.84003v3.58002h-2v-3.58002c0-.34003-.16998-.65002-.45001-.84003-.28998-.17999-.64001-.20996-.95001-.06995-2.19.94995-3.59998,3.10999-3.59998,5.48999,0,2.15997,1.15997,4.13,3,5.19v3.81h-5V13h32v18Z"/>
  <path d="M33,25c-.55225,0-1,.44775-1,1s.44775,1,1,1h1v1c0,.55225.44775,1,1,1h8c.55225,0,1-.44775,1-1v-1h1c.55225,0,1-.44775,1-1s-.44775-1-1-1h-1v-2h1c.55225,0,1-.44775,1-1s-.44775-1-1-1h-1v-2h1c.55225,0,1-.44775,1-1s-.44775-1-1-1h-1v-1c0-.55225-.44775-1-1-1h-8c-.55225,0-1,.44775-1,1v1h-1c-.55225,0-1,.44775-1,1s.44775,1,1,1h1v2h-1c-.55225,0-1,.44775-1,1s.44775,1,1,1h1v2h-1ZM36,17h6v10h-6v-10Z"/>
  <circle cx="22" cy="8" r="1"/>
</svg>
