<svg fill="currentColor" xmlns="http://www.w3.org/2000/svg" version="1.1" viewBox="0 0 48 48">
  <path d="M21.35645,13c-1.59961,0-3.17871.43164-4.56689,1.24805-.47607.27979-.63525.89258-.35498,1.36865.28027.47656.89355.63623,1.36865.35498,1.08154-.63574,2.31006-.97168,3.55322-.97168,3.85986,0,7,3.14014,7,7,0,2.78534-1.63922,5.18872-4,6.315v-2.315c0-.00775-.00421-.01416-.00439-.02191,1.20959-.91351,2.00439-2.34912,2.00439-3.97809,0-2.75684-2.24316-5-5-5s-5,2.24316-5,5c0,1.62897.7948,3.06458,2.00439,3.97809-.00018.00775-.00439.01416-.00439.02191v2.315c-2.36078-1.12628-4-3.52966-4-6.315,0-1.24316.33594-2.47168.97168-3.55322.28027-.47607.12109-1.08887-.35498-1.36865-.4751-.27979-1.08936-.12109-1.36865.35498-.81641,1.38818-1.24805,2.96729-1.24805,4.56689,0,4.9624,4.0376,9,9,9s9-4.0376,9-9-4.0376-9-9-9ZM20.35645,19.18427v1.81573c0,.55225.44775,1,1,1s1-.44775,1-1v-1.81573c1.1615.41412,2,1.51379,2,2.81573,0,1.6543-1.3457,3-3,3s-3-1.3457-3-3c0-1.30194.8385-2.40161,2-2.81573ZM20.35645,28.92017v-1.92017h2v1.92017c-.32751.04718-.65961.07983-1,.07983s-.67249-.03265-1-.07983Z" fill="currentColor" stroke-width="0"/>
  <path d="M37.29297,33.79297l-2.29297,2.29297-1.29297-1.29297c-.39062-.39062-1.02344-.39062-1.41406,0s-.39062,1.02344,0,1.41406l2,2c.19531.19531.45117.29297.70703.29297s.51172-.09766.70703-.29297l3-3c.39062-.39062.39062-1.02344,0-1.41406s-1.02344-.39062-1.41406,0Z" fill="currentColor" stroke-width="0"/>
  <path d="M37.37549,28.24689l.2002-.3465c.27564-.47708.10765-1.09405-.36621-1.3667-1.64014-.94629-2.61963-2.64111-2.61963-4.53369,0-1.89244.97935-3.58716,2.61928-4.53349.44609-.25742.64396-.88567.36705-1.36593l-3-5.2002c-.27588-.47803-.88721-.64307-1.36426-.36768-.81738.46973-1.6958.70752-2.61182.70752-2.52002,0-5.24023-2.00342-5.24023-5.24023,0-.55225-.44775-1-1-1h-6c-.55225,0-1,.44775-1,1,0,3.23682-2.7251,5.24023-5.25,5.24023-.91602,0-1.79443-.23779-2.61182-.70752-.47803-.27539-1.08887-.11035-1.36426.36768,0,0-2.9924,5.18702-2.99999,5.20019-.27535.47732-.10763,1.09207.36669,1.36573,1.64014.94629,2.61963,2.64111,2.61963,4.53369s-.97943,3.5873-2.61948,4.53361c-.47577.27452-.64045.89128-.36685,1.36581l3,5.2002c.27539.47852.88623.64258,1.36426.36768.81738-.46973,1.6958-.70752,2.61182-.70752,2.5249,0,5.25,2.00342,5.25,5.24023,0,.55225.44775,1,1,1h6c.55225,0,1-.44775,1-1,0-2.31421,1.33569-3.9389,2.97449-4.7149-.21692.70038-.33435,1.44415-.33435,2.2149,0,4.13574,3.36426,7.5,7.5,7.5s7.5-3.36426,7.5-7.5c0-3.48712-2.3952-6.41718-5.62451-7.25311ZM23.4292,37h-4.13818c-.48926-3.521-3.52295-6.24023-7.18115-6.24023-.93848,0-1.84619.17871-2.70996.53271l-2.06738-3.58398c1.76172-1.36035,2.7876-3.43066,2.7876-5.7085s-1.02588-4.34814-2.7876-5.7085l2.06738-3.58398c.86377.354,1.77148.53271,2.70996.53271,3.6582,0,6.69189-2.71924,7.18115-6.24023h4.1377c.48828,3.521,3.51807,6.24023,7.17139,6.24023.93848,0,1.84619-.17871,2.70996-.53271l2.06738,3.58398c-1.76172,1.36035-2.7876,3.43066-2.7876,5.7085,0,2.27734,1.02588,4.34766,2.78711,5.70801l-.17749.30725c-2.25964.09021-4.26288,1.1792-5.5791,2.84283-3.21228.43982-5.74677,2.9682-6.19116,6.14191ZM35.5,41c-3.03271,0-5.5-2.46729-5.5-5.5s2.46729-5.5,5.5-5.5,5.5,2.46729,5.5,5.5-2.46729,5.5-5.5,5.5Z" fill="currentColor" stroke-width="0"/>
</svg>
