<svg fill="currentColor" xmlns="http://www.w3.org/2000/svg" version="1.1" viewBox="0 0 64 64">
  <path d="M55.62,22c-.51001-.20001-1.08997.06-1.28998.57996-.16003.43005-.36005.84003-.58002,1.24005-.87-.45001-1.90002-.82001-3.02002-1.11005.17004-1.15997.27002-2.39996.27002-3.70996s-.09998-2.54999-.27002-3.71002c1.12-.28998,2.15002-.65997,3.02002-1.10999.21997.39996.41998.81.58002,1.23999.20001.52002.77997.78003,1.28998.58002.52002-.19.78003-.77002.59003-1.28003-1.75-4.62-6.26001-7.71997-11.21002-7.71997-6.28003,0-11.44,4.84998-11.95001,11h-10.12c-.48999-3.94-3.85999-7-7.92999-7-4.40997,0-8,3.58997-8,8s3.59003,8,8,8c4.07001,0,7.44-3.06,7.92999-7h10.12c.21002,2.56,1.23004,4.89001,2.79999,6.73999l-15.94995,15.95001c-1.36005-1.06-3.05005-1.69-4.90002-1.69-4.40997,0-8,3.58997-8,8s3.59003,8,8,8,8-3.59003,8-8c0-1.85004-.63-3.54004-1.69-4.90002l15.95001-15.95001c1.84998,1.57001,4.17999,2.59003,6.73999,2.80005v10.12c-3.94.48999-7,3.85999-7,7.92999,0,4.40997,3.59003,8,8,8s8-3.59003,8-8c0-4.07001-3.06-7.44-7-7.92999v-10.11005c4.54999-.38995,8.57001-3.37,10.21002-7.67999.19-.51001-.07001-1.08997-.59003-1.27997ZM15,25c-1.77002,0-3.37-.78003-4.46002-2.01001,1.12-1.26001,2.74005-1.98999,4.46002-1.98999,1.59998,0,3.10999.62,4.23999,1.76001.08002.07996.14001.16998.21002.25-1.10004,1.21997-2.67999,1.98999-4.45001,1.98999ZM14,18c0-.54999.45001-1,1-1s1,.45001,1,1-.45001,1-1,1-1-.45001-1-1ZM20.56,21.25c-.84998-.82001-1.85999-1.42999-2.95001-1.81.23999-.42999.39001-.91003.39001-1.44,0-1.65002-1.34998-3-3-3s-3,1.34998-3,3c0,.52997.15002,1.01996.39001,1.45001-1.10004.37994-2.10004,1-2.94,1.81-.29004-.70001-.45001-1.46002-.45001-2.26001,0-3.31,2.69-6,6-6s6,2.69,6,6c0,.79999-.15997,1.56-.44,2.25ZM15,55c-1.77002,0-3.37-.78003-4.46002-2.01001,1.12-1.26001,2.74005-1.98999,4.46002-1.98999,1.59998,0,3.10999.62,4.23999,1.76001.08002.07996.14001.16998.21002.25-1.10004,1.21997-2.67999,1.98999-4.45001,1.98999ZM14,48c0-.54999.45001-1,1-1s1,.45001,1,1-.45001,1-1,1-1-.45001-1-1ZM20.56,51.25c-.84998-.82001-1.85999-1.42999-2.95001-1.81.23999-.42999.39001-.91003.39001-1.44,0-1.65002-1.34998-3-3-3s-3,1.34998-3,3c0,.52997.15002,1.01996.39001,1.45001-1.10004.37994-2.10004,1-2.94,1.81-.29004-.70001-.45001-1.46002-.45001-2.26001,0-3.31,2.69-6,6-6s6,2.69,6,6c0,.79999-.15997,1.56-.44,2.25ZM52.59998,12.51001c-.66998.32996-1.42999.59998-2.26996.82996-.34003-1.35999-.81-2.53998-1.38-3.51001,1.39996.60004,2.64996,1.52002,3.64996,2.68005ZM45,9c1.23999,0,2.58002,1.84998,3.34998,4.75-1.06995.15997-2.19.25-3.34998.25s-2.28003-.09003-3.34998-.25c.76996-2.90002,2.10999-4.75,3.34998-4.75ZM41.06,9.81c-.57001.96997-1.03998,2.15997-1.39001,3.52997-.83997-.22998-1.59998-.5-2.26996-.82996.98999-1.15002,2.23999-2.09003,3.65997-2.70001ZM36.25,23.82001c-.79999-1.42999-1.25-3.07001-1.25-4.82001s.45001-3.39001,1.25-4.82001c.87.45001,1.90002.82001,3.02002,1.10999-.17004,1.16003-.27002,2.40002-.27002,3.71002s.09998,2.54999.27002,3.70996c-1.12.29004-2.15002.66003-3.02002,1.11005ZM37.40002,25.48999c.66998-.33002,1.42999-.59998,2.26996-.83002.35004,1.37.82001,2.56,1.39001,3.53003-1.41998-.61005-2.66998-1.54999-3.65997-2.70001ZM45,55c-1.77002,0-3.37-.78003-4.46002-2.01001,1.12-1.26001,2.74005-1.98999,4.46002-1.98999,1.59998,0,3.10999.62,4.23999,1.76001.08002.07996.14001.16998.21002.25-1.10004,1.21997-2.67999,1.98999-4.45001,1.98999ZM44,48c0-.54999.45001-1,1-1s1,.45001,1,1-.45001,1-1,1-1-.45001-1-1ZM51,49c0,.79999-.15997,1.56-.44,2.25-.84998-.82001-1.85999-1.42999-2.95001-1.81.23999-.42999.39001-.91003.39001-1.44,0-1.65002-1.34998-3-3-3s-3,1.34998-3,3c0,.52997.15002,1.01996.39001,1.45001-1.10004.37994-2.10004,1-2.94,1.81-.29004-.70001-.45001-1.46002-.45001-2.26001,0-3.31,2.69-6,6-6s6,2.69,6,6ZM45,29c-1.23999,0-2.58002-1.85004-3.34998-4.75,1.06995-.16003,2.19-.25,3.34998-.25s2.28003.08997,3.34998.25c-.76996,2.89996-2.10999,4.75-3.34998,4.75ZM45,22c-1.28998,0-2.54999.10999-3.75.29999-.15997-1.03003-.25-2.13-.25-3.29999,0-1.17004.09003-2.27002.25-3.29999,1.20001.19,2.46002.29999,3.75.29999s2.54999-.10999,3.75-.29999c.15997,1.02997.25,2.12994.25,3.29999,0,1.16998-.09003,2.26996-.25,3.29999-1.20001-.19-2.46002-.29999-3.75-.29999ZM48.95001,28.16998c.57001-.96997,1.03998-2.15002,1.38-3.51001.83997.23004,1.59998.5,2.26996.83002-1,1.15997-2.25,2.08002-3.64996,2.67999Z"/>
  <circle cx="56" cy="19" r="1"/>
</svg>
