<svg fill="currentColor" xmlns="http://www.w3.org/2000/svg" version="1.1" viewBox="0 0 64 64">
  <path d="M16,53c.55273,0,1-.44775,1-1v-4c0-.55225-.44727-1-1-1s-1,.44775-1,1v4c0,.55225.44727,1,1,1Z"/>
  <path d="M12,53c.55273,0,1-.44775,1-1v-4c0-.55225-.44727-1-1-1s-1,.44775-1,1v4c0,.55225.44727,1,1,1Z"/>
  <path d="M22,53h8c1.6543,0,3-1.3457,3-3s-1.3457-3-3-3h-8c-1.6543,0-3,1.3457-3,3s1.3457,3,3,3ZM22,49h8c.55176,0,1,.44873,1,1s-.44824,1-1,1h-8c-.55176,0-1-.44873-1-1s.44824-1,1-1Z"/>
  <path d="M16,23c-.55273,0-1,.44775-1,1v4c0,.55225.44727,1,1,1s1-.44775,1-1v-4c0-.55225-.44727-1-1-1Z"/>
  <path d="M12,23c-.55273,0-1,.44775-1,1v4c0,.55225.44727,1,1,1s1-.44775,1-1v-4c0-.55225-.44727-1-1-1Z"/>
  <path d="M30,23h-8c-1.6543,0-3,1.3457-3,3s1.3457,3,3,3h8c1.6543,0,3-1.3457,3-3s-1.3457-3-3-3ZM30,27h-8c-.55176,0-1-.44873-1-1s.44824-1,1-1h8c.55176,0,1,.44873,1,1s-.44824,1-1,1Z"/>
  <path d="M27,36v4c0,.55225.44727,1,1,1s1-.44775,1-1v-4c0-.55225-.44727-1-1-1s-1,.44775-1,1Z"/>
  <path d="M31,36v4c0,.55225.44727,1,1,1s1-.44775,1-1v-4c0-.55225-.44727-1-1-1s-1,.44775-1,1Z"/>
  <path d="M14,35c-1.6543,0-3,1.3457-3,3s1.3457,3,3,3h8c1.6543,0,3-1.3457,3-3s-1.3457-3-3-3h-8ZM23,38c0,.55127-.44824,1-1,1h-8c-.55176,0-1-.44873-1-1s.44824-1,1-1h8c.55176,0,1,.44873,1,1Z"/>
  <path d="M45,7c-6.62,0-12,5.38-12,12H10c-1.65002,0-3,1.34998-3,3v32c0,1.64996,1.34998,3,3,3h24c1.65002,0,3-1.35004,3-3v-12c0-.54999-.45001-1-1-1s-1,.45001-1,1v1H9v-10h26v1c0,.54999.45001,1,1,1s1-.45001,1-1v-6.08002c2.13,1.90997,4.91998,3.08002,8,3.08002,6.62,0,12-5.38,12-12s-5.38-12-12-12ZM35,45v9c0,.54999-.45001,1-1,1H10c-.54999,0-1-.45001-1-1v-9h26ZM52.59998,12.51001c-.66998.32996-1.42999.59998-2.26996.82996-.35004-1.37-.82001-2.56-1.39001-3.52997,1.41998.60999,2.66998,1.54999,3.65997,2.70001ZM45,9c1.23999,0,2.58002,1.84998,3.34998,4.75-1.06995.15997-2.19.25-3.34998.25s-2.28003-.09003-3.34998-.25c.76996-2.90002,2.10999-4.75,3.34998-4.75ZM41.06,9.81c-.57001.96997-1.03998,2.15997-1.39001,3.52997-.83997-.22998-1.59998-.5-2.26996-.82996.98999-1.15002,2.23999-2.09003,3.65997-2.70001ZM35,31H9v-9c0-.54999.45001-1,1-1h23.17999c.28003,1.67999.91003,3.25,1.82001,4.62v5.38ZM36.25,23.82001c-.79999-1.42999-1.25-3.07001-1.25-4.82001s.45001-3.39001,1.25-4.82001c.87.45001,1.90002.82001,3.02002,1.10999-.17004,1.16003-.27002,2.40002-.27002,3.71002s.09998,2.54999.27002,3.70996c-1.12.29004-2.15002.66003-3.02002,1.11005ZM37.40002,25.48999c.66998-.33002,1.42999-.59998,2.26996-.83002.35004,1.37.82001,2.56,1.39001,3.53003-1.41998-.61005-2.66998-1.54999-3.65997-2.70001ZM45,29c-1.23999,0-2.58002-1.85004-3.34998-4.75,1.06995-.16003,2.19-.25,3.34998-.25s2.28003.08997,3.34998.25c-.76996,2.89996-2.10999,4.75-3.34998,4.75ZM45,22c-1.28998,0-2.54999.10999-3.75.29999-.15997-1.03003-.25-2.13-.25-3.29999,0-1.17004.09003-2.27002.25-3.29999,1.20001.19,2.46002.29999,3.75.29999s2.54999-.10999,3.75-.29999c.15997,1.02997.25,2.12994.25,3.29999,0,1.16998-.09003,2.26996-.25,3.29999-1.20001-.19-2.46002-.29999-3.75-.29999ZM48.94,28.19c.57001-.97003,1.03998-2.16003,1.39001-3.53003.83997.23004,1.59998.5,2.26996.83002-.98999,1.15002-2.23999,2.08997-3.65997,2.70001ZM50.72998,22.70996c.17004-1.15997.27002-2.39996.27002-3.70996s-.09998-2.54999-.27002-3.71002c1.12-.28998,2.15002-.65997,3.02002-1.10999.79999,1.42999,1.25,3.07001,1.25,4.82001s-.45001,3.39001-1.25,4.82001c-.87-.45001-1.90002-.82001-3.02002-1.11005Z"/>
  <circle cx="36" cy="38" r="1"/>
</svg>
