<svg fill="currentColor" xmlns="http://www.w3.org/2000/svg" version="1.1" viewBox="0 0 48 48">
  <path d="M40,5h-23c-.55225,0-1,.44727-1,1s.44775,1,1,1h23c.55127,0,1,.44824,1,1v21h-6c-.55225,0-1,.44727-1,1s.44775,1,1,1h6v1c0,.55176-.44873,1-1,1h-23v-2h14c.55225,0,1-.44727,1-1s-.44775-1-1-1H13v-2.18427c1.1615-.41412,2-1.51379,2-2.81573,0-1.6543-1.3457-3-3-3s-3,1.3457-3,3c0,1.30194.8385,2.40155,2,2.81567v2.18433h-4v-10h8.58594l.71466.71466c-.18713.39111-.3006.82361-.3006,1.28534,0,1.6543,1.3457,3,3,3s3-1.3457,3-3-1.3457-3-3-3c-.46173,0-.89423.11346-1.28534.3006l-1.00763-1.00763c-.1875-.1875-.44189-.29297-.70703-.29297H7v-2h8c.15576,0,.30957-.03613.44873-.10645l1.47174-.73944c.53992.52136,1.27142.84589,2.07953.84589,1.6543,0,3-1.3457,3-3s-1.3457-3-3-3-3,1.3457-3,3c0,.12335.02185.24072.03638.36017l-1.27368.63983h-7.7627v-5c0-.55176.44873-1,1-1h5c.55225,0,1-.44727,1-1s-.44775-1-1-1h-5c-1.6543,0-3,1.3457-3,3v24c0,1.6543,1.3457,3,3,3h11v2h-3c-1.10303,0-2,.89746-2,2v2c0,1.10254.89697,2,2,2h16c1.10303,0,2-.89746,2-2v-2c0-1.10254-.89697-2-2-2h-3v-2h11c1.6543,0,3-1.3457,3-3V8c0-1.6543-1.3457-3-3-3ZM12,23c.55127,0,1,.44824,1,1s-.44873,1-1,1-1-.44824-1-1,.44873-1,1-1ZM20,21c0,.55176-.44873,1-1,1s-1-.44824-1-1,.44873-1,1-1,1,.44824,1,1ZM19,11c.55127,0,1,.44824,1,1s-.44873,1-1,1-1-.44824-1-1,.44873-1,1-1ZM15,33h-3v-2h3v2ZM7,32v-1h3v2h-2c-.55127,0-1-.44824-1-1ZM32.00146,41h-16.00146v-2h16l.00146,2ZM27,37h-6v-2h6v2Z" fill="currentColor" stroke-width="0"/>
  <path d="M31,27c.21729,0,.43457-.07031.61572-.21191.65332-.51074,6.38428-5.09375,6.38428-8.78809v-5c0-1.10254-.89697-2-2-2-1.11084,0-2.18604-.3252-3.10938-.94141l-1.33594-.89062c-.33594-.22461-.77344-.22461-1.10938,0l-1.33594.89062c-.92334.61621-1.99854.94141-3.10938.94141-1.10303,0-2,.89746-2,2v5c0,3.69434,5.73096,8.27734,6.38428,8.78809.18115.1416.39844.21191.61572.21191ZM26,18v-5c1.50684,0,2.96582-.44141,4.21875-1.27734l.78125-.52051.78125.52051c1.25293.83594,2.71191,1.27734,4.21875,1.27734v5c0,1.86914-2.85059,4.90039-5,6.71094-2.14941-1.81055-5-4.8418-5-6.71094Z" fill="currentColor" stroke-width="0"/>
  <path d="M34.20703,16.20703c.39062-.39062.39062-1.02344,0-1.41406s-1.02344-.39062-1.41406,0l-2.29297,2.29297-1.29297-1.29297c-.39062-.39062-1.02344-.39062-1.41406,0s-.39062,1.02344,0,1.41406l2,2c.19531.19531.45117.29297.70703.29297s.51172-.09766.70703-.29297l3-3Z" fill="currentColor" stroke-width="0"/>
</svg>
