<svg fill="currentColor" xmlns="http://www.w3.org/2000/svg" version="1.1" viewBox="0 0 64 64">
  <path d="M46,27c.54999,0,1-.45001,1-1V10c0-1.65002-1.34998-3-3-3h-24c-1.65002,0-3,1.34998-3,3v44c0,1.64996,1.34998,3,3,3h24c1.65002,0,3-1.35004,3-3v-20c0-.54999-.45001-1-1-1s-1,.45001-1,1v14c0,.54999-.45001,1-1,1h-24c-.54999,0-1-.45001-1-1V10c0-.54999.45001-1,1-1h3.38l1.72998,3.45001c.16003.33997.51001.54999.89001.54999h12c.38,0,.72998-.21002.89001-.54999l1.72998-3.45001h3.38c.54999,0,1,.45001,1,1v16c0,.54999.45001,1,1,1ZM35.44,51h8.56c.34998,0,.69-.07001,1-.17999v3.17999c0,.54999-.45001,1-1,1h-8.56c.34998-.59003.56-1.27002.56-2,0-.73004-.21002-1.41003-.56-2ZM32,51c1.09998,0,2,.89996,2,2,0,1.09998-.90002,2-2,2s-2-.90002-2-2c0-1.10004.90002-2,2-2ZM20,51h8.56c-.34998.58997-.56,1.26996-.56,2,0,.72998.21002,1.40997.56,2h-8.56c-.54999,0-1-.45001-1-1v-3.17999c.31.10999.65002.17999,1,.17999ZM37.38,11h-10.76001l-1-2h12.76001l-1,2Z"/>
  <path d="M43,19c0-1.6543-1.3457-3-3-3h-16c-1.6543,0-3,1.3457-3,3v8c0,1.6543,1.3457,3,3,3h16c1.6543,0,3-1.3457,3-3v-8ZM41,27c0,.55176-.44873,1-1,1h-16c-.55127,0-1-.44824-1-1v-8c0-.55176.44873-1,1-1h16c.55127,0,1,.44824,1,1v8Z"/>
  <path d="M38,20h-12c-.55225,0-1,.44727-1,1s.44775,1,1,1h12c.55225,0,1-.44727,1-1s-.44775-1-1-1Z"/>
  <path d="M30,24h-4c-.55225,0-1,.44727-1,1s.44775,1,1,1h4c.55225,0,1-.44727,1-1s-.44775-1-1-1Z"/>
  <path d="M38,24h-4c-.55225,0-1,.44727-1,1s.44775,1,1,1h4c.55225,0,1-.44727,1-1s-.44775-1-1-1Z"/>
  <path d="M40,32h-16c-1.6543,0-3,1.3457-3,3v8c0,1.6543,1.3457,3,3,3h16c1.6543,0,3-1.3457,3-3v-8c0-1.6543-1.3457-3-3-3ZM41,43c0,.55176-.44873,1-1,1h-16c-.55127,0-1-.44824-1-1v-8c0-.55176.44873-1,1-1h16c.55127,0,1,.44824,1,1v8Z"/>
  <path d="M38,36h-12c-.55225,0-1,.44727-1,1s.44775,1,1,1h12c.55225,0,1-.44727,1-1s-.44775-1-1-1Z"/>
  <path d="M30,40h-4c-.55225,0-1,.44727-1,1s.44775,1,1,1h4c.55225,0,1-.44727,1-1s-.44775-1-1-1Z"/>
  <path d="M38,40h-4c-.55225,0-1,.44727-1,1s.44775,1,1,1h4c.55225,0,1-.44727,1-1s-.44775-1-1-1Z"/>
  <circle cx="46" cy="30" r="1"/>
</svg>
