<svg fill="currentColor" xmlns="http://www.w3.org/2000/svg" version="1.1" viewBox="0 0 64 64">
  <path d="M46,19c.54999,0,1-.45001,1-1v-8c0-1.65002-1.34998-3-3-3h-24c-1.65002,0-3,1.34998-3,3v44c0,1.64996,1.34998,3,3,3h24c1.65002,0,3-1.35004,3-3v-28c0-.54999-.45001-1-1-1s-1,.45001-1,1v22c0,.54999-.45001,1-1,1h-24c-.54999,0-1-.45001-1-1V10c0-.54999.45001-1,1-1h3.38l1.72998,3.45001c.17004.33997.51001.54999.89001.54999h12c.38,0,.71997-.21002.89001-.54999l1.72998-3.45001h3.38c.54999,0,1,.45001,1,1v8c0,.54999.45001,1,1,1ZM35.44,51h8.56c.34998,0,.69-.07001,1-.17999v3.17999c0,.54999-.45001,1-1,1h-8.56c.34998-.59003.56-1.27002.56-2,0-.73004-.21002-1.41003-.56-2ZM32,51c1.09998,0,2,.89996,2,2,0,1.09998-.90002,2-2,2s-2-.90002-2-2c0-1.10004.90002-2,2-2ZM20,51h8.56c-.34998.58997-.56,1.26996-.56,2,0,.72998.21002,1.40997.56,2h-8.56c-.54999,0-1-.45001-1-1v-3.17999c.31.10999.65002.17999,1,.17999ZM37.38,11h-10.76001l-1-2h12.76001l-1,2Z"/>
  <path d="M32,25c-1.8623,0-3.46094-1.25879-3.8877-3.06055-.12695-.53711-.66602-.87207-1.20312-.74219-.53711.12695-.87012.66504-.74219,1.20312.64062,2.70801,3.03906,4.59961,5.83301,4.59961,3.30859,0,6-2.69141,6-6s-2.69141-6-6-6c-.12012,0-.24121.00195-.28418.01074-1.06036.04614-2.07794.38861-2.95801.95233v-.6203c0-.55273-.44727-1-1-1s-1,.44727-1,1v2.8291c0,.55273.44727,1,1,1h2.82812c.55273,0,1-.44727,1-1,0-.48236-.34747-.86548-.80157-.96002.34967-.11182.71313-.19226,1.0965-.2099.01953-.00195.04004-.00293.05957-.00293,2.2334-.01758,4.05957,1.77539,4.05957,4.00098,0,2.20605-1.79395,4-4,4Z"/>
  <path d="M40,29h-16c-1.65002,0-3,1.34998-3,3s1.34998,3,3,3h16c1.65002,0,3-1.35004,3-3s-1.34998-3-3-3ZM24.59003,33h-.59003c-.54999,0-1-.45001-1-1s.45001-1,1-1h2.59003l-2,2ZM29.59003,33h-2.18005l2-2h2.18005l-2,2ZM34.59003,33h-2.18005l2-2h2.18005l-2,2ZM40,33h-2.59003l2-2h.59003c.54999,0,1,.45001,1,1s-.45001,1-1,1Z"/>
  <path d="M22,37c-.55273,0-1,.44727-1,1v8c0,.55273.44727,1,1,1h8c.55273,0,1-.44727,1-1v-8c0-.55273-.44727-1-1-1h-8ZM29,45h-6v-6h6v6Z"/>
  <path d="M34,37c-.55273,0-1,.44727-1,1v8c0,.55273.44727,1,1,1h8c.55273,0,1-.44727,1-1v-8c0-.55273-.44727-1-1-1h-8ZM41,45h-6v-6h6v6Z"/>
  <circle cx="46" cy="22" r="1"/>
</svg>
