<svg fill="currentColor" xmlns="http://www.w3.org/2000/svg" version="1.1" viewBox="0 0 64 64">
  <path d="M56.05957,42.32366c-.54993-.95172-1.30219-1.73828-2.19238-2.32782l.28418.03729.88965-6.80029c1.32812-10.18896-4.06738-19.89795-13.42871-24.16064-6.1084-2.76709-13.11816-2.76611-19.22656.00098-9.35938,4.26172-14.75488,13.9707-13.42676,24.16016l.90967,6.94513c-.77472.56659-1.43347,1.289-1.92822,2.1452-.93555,1.61914-1.18457,3.50537-.70117,5.31201l.51758,1.93164c.4834,1.80615,1.64062,3.31592,3.25977,4.25146,1.0791.62354,2.27637.94189,3.49023.94189.27826,0,.55737-.02136.83606-.05499l.01941.07257c.20702.7739.70309,1.42134,1.39641,1.82222.64602.37354,1.51781.50386,2.27742.30034l1.93848-.51904c.77441-.20703,1.4209-.70312,1.82227-1.39697s.50781-1.50244.2998-2.27637l-4.13574-15.45703c-.42871-1.59717-2.08008-2.54688-3.69867-2.11493l-.35114-2.68195c-.98242-7.55664,3.01758-14.75488,9.95215-17.91064,4.53711-2.05957,9.7373-2.05908,14.27246-.00049,6.93555,3.15625,10.93555,10.35449,9.95312,17.91016l-.35101,2.68164-.03278-.00879c-.77148-.20361-1.58301-.09424-2.27734.31055-.69141.40332-1.18262,1.05029-1.38379,1.81787l-.96973,3.63037c-.14258.53369.17383,1.08203.70801,1.22461.5293.14258,1.08203-.17383,1.22363-.70801l.97168-3.63525c.06641-.25488.22949-.46875.45801-.60254.23145-.13477.49902-.17334.75586-.10498l1.93652.51953c.54297.14697.85645.68799.71582,1.22607l-4.14062,15.46338c-.06738.25391-.23145.46729-.46191.60059-.23242.13379-.50098.16992-.7627.09912l-1.94238-.521c-.25488-.06738-.46777-.23145-.60156-.46191-.13379-.23242-.16895-.50195-.09863-.76221l1.09961-4.1001c.14355-.53369-.17383-1.08203-.70703-1.2251-.53223-.14355-1.08105.17334-1.22461.70654l-1.09863,4.09766c-.21094.77588-.10449,1.58691.29785,2.28369.40137.69531,1.04883,1.19092,1.81836,1.39404,0,0,1.93652.51953,1.93657.51954.77036.20773,1.5921.10123,2.28316-.29835.69531-.40186,1.19141-1.04834,1.39453-1.81836l.02051-.07654c.27899.03375.55835.05505.83691.05505,1.21387,0,2.41113-.31836,3.49023-.94189,1.61914-.93555,2.77637-2.44531,3.25977-4.25098l.51758-1.93262c.4834-1.80615.23438-3.69238-.70117-5.31152ZM12.0166,52.08684c-1.15625-.66797-1.98242-1.74609-2.32812-3.03662l-.51758-1.93164c-.34473-1.29053-.16699-2.6377.50098-3.79443.49805-.86212,1.22546-1.53992,2.09766-1.97272l3.04968,11.39716c-.97205.06061-1.94031-.16357-2.80261-.66174ZM17.0293,37.76897l4.13574,15.45654c.06934.2583.0332.52734-.09961.75879-.13379.23096-.34961.39648-.6084.46582l-1.93848.51904c-.25879.06787-.52832.0332-.75879-.10059-.23145-.1333-.39648-.34912-.46582-.60693l-4.13574-15.45654c-.06934-.2583-.0332-.52734.09961-.75879.13379-.23145.34961-.39648.60742-.46582l1.93848-.51855c.54004-.14502,1.08301.17578,1.22559.70703ZM50.68536,35.66149l.38593-2.94916c1.09668-8.43359-3.36719-16.4668-11.1084-19.98975-5.06055-2.29785-10.86621-2.29834-15.92676.00049-7.74023,3.52246-12.2041,11.55566-11.10742,19.99023l.38586,2.94794c-.75818.21234-1.3938.70154-1.78821,1.38458-.01636.02832-.02466.05945-.04004.08813l-.54492-4.15991c-1.21289-9.31201,3.71875-18.18555,12.27051-22.07959,5.58398-2.5293,11.99023-2.5293,17.57422-.00098,8.55371,3.89502,13.48535,12.76855,12.27246,22.08008l-.54608,4.17383c-.37244-.69965-1.01129-1.2533-1.82715-1.4859ZM54.8291,47.11809l-.51758,1.93262c-.3457,1.29004-1.17188,2.36816-2.32812,3.03613-.86346.49799-1.83228.72241-2.8031.66193l3.05188-11.39624c.87134.43286,1.59827,1.11011,2.09595,1.97162.66797,1.15674.8457,2.50391.50098,3.79395Z"/>
  <path d="M30,16.00335c-5.51367,0-10,4.48584-10,10v8.99988c0,.85611,1.0987,1.31549,1.70703.70715l1.96387-1.96387c1.78125,1.46191,3.99414,2.25684,6.3291,2.25684,5.51367,0,10-4.48584,10-10s-4.48633-10-10-10ZM30,34.00335c-2.13672,0-4.14648-.83203-5.65723-2.34326-.1875-.1875-.44141-.29297-.70703-.29297s-.51953.10547-.70703.29297l-.92871.92871v-6.58545c0-4.41113,3.58887-8,8-8s8,3.58887,8,8-3.58887,8-8,8Z"/>
  <path d="M30,22.00335c-.55273,0-1,.44775-1,1v2h-2v-2c0-.55225-.44727-1-1-1s-1,.44775-1,1v6c0,.55225.44727,1,1,1s1-.44775,1-1v-2h2v2c0,.55225.44727,1,1,1s1-.44775,1-1v-6c0-.55225-.44727-1-1-1Z"/>
  <path d="M34,26.00335c-.55273,0-1,.44775-1,1v2c0,.55225.44727,1,1,1s1-.44775,1-1v-2c0-.55225-.44727-1-1-1Z"/>
  <circle cx="34" cy="23.00335" r="1"/>
  <path d="M37,38.00335h-10c-1.6543,0-3,1.3457-3,3v4c0,1.6543,1.3457,3,3,3h8.69727l2.74802,1.83201c.61382.40922,1.55472-.03132,1.55472-.83201v-8c0-1.6543-1.3457-3-3-3ZM38,47.13469l-1.44531-.96338c-.16406-.10938-.35742-.16797-.55469-.16797h-9c-.55176,0-1-.44873-1-1v-4c0-.55127.44824-1,1-1h10c.55176,0,1,.44873,1,1v6.13135Z"/>
  <path d="M35,42.00335h-6c-.55273,0-1,.44775-1,1s.44727,1,1,1h6c.55273,0,1-.44775,1-1s-.44727-1-1-1Z"/>
  <circle cx="44" cy="45.00335" r="1"/>
</svg>
