<svg fill="currentColor" xmlns="http://www.w3.org/2000/svg" version="1.1" viewBox="0 0 64 64">
  <path d="M29.19238,28.86426l-.70703.70703-1.46045-1.46014c1.03619-1.29462,1.72351-2.87823,1.91614-4.61115h2.05896v1c0,.55273.44775,1,1,1s1-.44727,1-1v-4c0-.55273-.44775-1-1-1s-1,.44727-1,1v1h-2.05896c-.19263-1.73291-.87994-3.31653-1.91614-4.61115l1.46045-1.46014.70703.70703c.37034.37034,1.02143.39263,1.41406,0,.39062-.39062.39062-1.02344,0-1.41406l-2.82812-2.82812c-.39062-.39062-1.02344-.39062-1.41406,0s-.39062,1.02344,0,1.41406l.70703.70703-1.46051,1.46014c-1.29456-1.03607-2.87817-1.72321-4.61078-1.91577v-2.05902h1c.55225,0,1-.44727,1-1s-.44775-1-1-1h-4c-.55225,0-1,.44727-1,1s.44775,1,1,1h1v2.05902c-1.7326.19257-3.31622.8797-4.61078,1.91577l-1.46051-1.46014.70703-.70703c.39062-.39062.39062-1.02344,0-1.41406s-1.02344-.39062-1.41406,0l-2.82812,2.82812c-.39062.39062-.39062,1.02344.00003,1.4141.3874.38737,1.02652.38747,1.41403-.00003l.70703-.70703,1.46045,1.46014c-1.03619,1.29462-1.72351,2.87823-1.91614,4.61115h-2.05896v-1c0-.55273-.44775-1-1-1s-1,.44727-1,1v4c0,.55273.44775,1,1,1s1-.44727,1-1v-1h2.05896c.19263,1.73291.87994,3.31653,1.91614,4.61115l-1.46045,1.46014-.70703-.70703c-.39062-.39062-1.02344-.39062-1.41406,0s-.39062,1.02344,0,1.41406l2.82812,2.82812c.37085.37085,1.01974.39432,1.41406,0,.39062-.39062.39062-1.02344,0-1.41406l-.70703-.70703,1.46051-1.46014c1.29456,1.03607,2.87817,1.72321,4.61078,1.91577v2.05902h-1c-.55225,0-1,.44727-1,1s.44775,1,1,1h4c.55225,0,1-.44727,1-1s-.44775-1-1-1h-1v-2.05902c1.7326-.19257,3.31622-.8797,4.61078-1.91577l1.46051,1.46014-.70703.70703c-.39062.39062-.39062,1.02343,0,1.41406.37013.37014,1.01865.39543,1.41407,0l2.82812-2.82812c.39062-.39062.39062-1.02344,0-1.41406s-1.02344-.39062-1.41406,0ZM20,29.5c-3.85986,0-7-3.14062-7-7s3.14014-7,7-7,7,3.14062,7,7-3.14014,7-7,7Z"/>
  <path d="M21,17.5c-1.6543,0-3,1.3457-3,3s1.3457,3,3,3,3-1.3457,3-3-1.3457-3-3-3ZM21,21.5c-.55127,0-1-.44824-1-1s.44873-1,1-1,1,.44824,1,1-.44873,1-1,1Z"/>
  <circle cx="16" cy="22.5" r="1"/>
  <circle cx="18" cy="25.5" r="1"/>
  <circle cx="22" cy="26.5" r="1"/>
  <path d="M56.24268,31.53027l-12-3c-.15918-.04102-.32617-.04102-.48535,0l-12,3c-.44482.11133-.75732.51074-.75732.96973v6.83008c0,3.63184,1.2915,7.16113,3.6377,9.9375,2.34863,2.76465,5.61475,4.61816,9.19678,5.21875.05469.00879.11035.01367.16553.01367.05469,0,.10986-.00488.16406-.01367,6.57422-1.09277,11.66357-6.25488,12.66455-12.8457.08301-.5459-.29248-1.05664-.83887-1.13867-.54199-.08496-1.05566.29199-1.13867.83789-.86182,5.67773-5.2124,10.13672-10.8501,11.14551-3.05322-.55176-5.83154-2.14941-7.8374-4.51074-2.04004-2.41406-3.16357-5.48438-3.16357-8.64453v-6.04883l11-2.75,11,2.75v.21875c0,.55273.44775,1,1,1s1-.44727,1-1v-1c0-.45898-.3125-.8584-.75732-.96973Z"/>
  <path d="M44.24268,32.65332c-.15918-.04102-.32617-.04102-.48535,0l-8,2c-.44482.11133-.75732.51074-.75732.96973v3.71191c0,5.31152,3.60791,9.86035,8.77344,11.06152.07471.01758.15039.02637.22656.02637s.15186-.00879.22656-.02637c5.16553-1.20117,8.77344-5.75,8.77344-11.06152v-3.71191c0-.45898-.3125-.8584-.75732-.96973l-8-2ZM51,39.33496c0,4.29883-2.86621,7.99023-7,9.05859-4.13379-1.06836-7-4.75977-7-9.05859v-2.93066l7-1.75,7,1.75v2.93066Z"/>
  <path d="M41,37.5c-.55225,0-1,.44727-1,1v4c0,.55273.44775,1,1,1s1-.44727,1-1v-4c0-.55273-.44775-1-1-1Z"/>
  <path d="M45,39.5h1v3c0,.55273.44775,1,1,1s1-.44727,1-1v-3h1c.55225,0,1-.44727,1-1s-.44775-1-1-1h-4c-.55225,0-1,.44727-1,1s.44775,1,1,1Z"/>
  <circle cx="56" cy="37.5" r="1"/>
</svg>
