<svg fill="currentColor" xmlns="http://www.w3.org/2000/svg" version="1.1" viewBox="0 0 64 64">
  <path d="M49.7959,14.2041c-4.72412-4.72461-11.00244-7.32715-17.67725-7.32715-.55225,0-1,.44727-1,1v3.99902c0,.55273.44775,1,1,1,5.07129,0,9.84229,1.97852,13.43506,5.57031,3.59229,3.59277,5.57031,8.36426,5.56982,13.43457,0,.26562.10547.51953.29297.70703s.44189.29297.70703.29297h3.99951c.55225,0,1-.44727,1-1,.00049-6.67383-2.60156-12.95117-7.32715-17.67676ZM53.1001,30.88086c-.24365-5.22949-2.39893-10.11426-6.13232-13.84863-3.7334-3.7334-8.61914-5.88867-13.84912-6.13281v-2.00098c5.76562.24512,11.15283,2.60938,15.26318,6.71973,4.11084,4.11035,6.4751,9.49805,6.72021,15.2627h-2.00195Z"/>
  <path d="M44.13635,19.85999c-3.20001-3.20001-7.46997-4.96997-12.01001-4.97998-.56,0-1,.44995-1,1l-.00995,4c0,.26001.09998.51996.28998.70996.19.17999.44.29004.71002.29004,2.94.01001,5.70996,1.14996,7.77997,3.21997,2.07001,2.08002,3.22003,4.84003,3.22003,7.79004,0,.54999.44995,1,1,1h.00995l3.99005-.01001c.56,0,1-.45001,1-1-.01001-4.55005-1.77002-8.82001-4.98004-12.02002ZM45.07635,30.88c-.23999-3.10004-1.54999-5.98004-3.76996-8.19-2.21002-2.21002-5.09003-3.53003-8.19-3.77002v-2c3.63995.23999,7.01996,1.76001,9.60999,4.34998,2.58997,2.60004,4.12,5.98004,4.35999,9.61005h-2.01001Z"/>
  <path d="M31.88135,51.12402c-5.07129,0-9.84229-1.97852-13.43506-5.57031-3.59229-3.59277-5.57031-8.36426-5.56982-13.43457,0-.26562-.10547-.51953-.29297-.70703s-.44189-.29297-.70703-.29297h-3.99951c-.55225,0-1,.44727-1,1-.00049,6.67383,2.60156,12.95117,7.32715,17.67676,4.72412,4.72461,11.00244,7.32715,17.67725,7.32715.55225,0,1-.44727,1-1v-3.99902c0-.55273-.44775-1-1-1ZM30.88135,55.10156c-5.76562-.24512-11.15283-2.60938-15.26318-6.71973-4.11084-4.11035-6.4751-9.49805-6.72021-15.2627h2.00195c.24365,5.22949,2.39893,10.11426,6.13232,13.84863,3.7334,3.7334,8.61914,5.88867,13.84912,6.13281v2.00098Z"/>
  <path d="M31.88818,43.11914c-2.94727-.00586-5.71191-1.14941-7.78467-3.22266-2.07227-2.07227-3.2168-4.83594-3.22314-7.78418-.00098-.55176-.44873-.99805-1-.99805h-.00195l-3.99951.00781c-.55225.00098-.99902.44922-.99805,1.00195.0083,4.54492,1.77686,8.8125,4.97998,12.01562s7.47021,4.9707,12.01514,4.97949h.00195c.55127,0,.99902-.44629,1-.99805l.0083-4c.00049-.26465-.10449-.51953-.2915-.70801-.18701-.1875-.44141-.29395-.70654-.29395ZM30.87988,47.08496c-3.63477-.24219-7.01465-1.76953-9.60498-4.35938-2.59033-2.59082-4.11719-5.9707-4.35986-9.60547l2.00488-.00391c.23877,3.10254,1.55664,5.98242,3.76953,8.19434,2.21338,2.21387,5.09277,3.53125,8.19482,3.76953l-.00439,2.00488Z"/>
  <path d="M32.02637,23c-.84375,0-1.68311.11719-2.49365.34766-.53125.15137-.83936.7041-.68848,1.23535.15088.53223.70459.83984,1.23535.68848.6333-.17969,1.28809-.27148,1.94678-.27148,3.85986,0,7,3.14062,7,7s-3.14014,7-7,7-7-3.14062-7-7c0-.66016.09131-1.31445.27148-1.94531.15186-.53027-.15576-1.08398-.68652-1.23633-.53174-.14648-1.08447.15625-1.23633.6875-.23145.80859-.34863,1.64746-.34863,2.49414,0,4.96289,4.0376,9,9,9s9-4.03711,9-9-4.0376-9-9-9Z"/>
  <path d="M27.02637,30v4c0,.55273.44775,1,1,1s1-.44727,1-1v-4c0-.55273-.44775-1-1-1s-1,.44727-1,1Z"/>
  <path d="M34.02637,35c.55225,0,1-.44727,1-1v-3h1c.55225,0,1-.44727,1-1s-.44775-1-1-1h-4c-.55225,0-1,.44727-1,1s.44775,1,1,1h1v3c0,.55273.44775,1,1,1Z"/>
  <path d="M27.0766,27.05023c.39056-.3905.39056-1.02368,0-1.41418-.3905-.39056-1.02368-.39056-1.41418,0-.3905.3905-.3905,1.02368,0,1.41418s1.02368.3905,1.41418,0Z"/>
</svg>
